<mxfile host="app.diagrams.net" agent="Mozilla/5.0 (X11; Ubuntu; Linux x86_64; rv:133.0) Gecko/20100101 Firefox/133.0" version="25.0.3">
  <diagram name="Page-1" id="58cdce13-f638-feb5-8d6f-7d28b1aa9fa0">
    <mxGraphModel dx="683" dy="365" grid="1" gridSize="10" guides="1" tooltips="1" connect="1" arrows="1" fold="1" page="1" pageScale="1" pageWidth="1100" pageHeight="850" background="none" math="0" shadow="0">
      <root>
        <mxCell id="0" />
        <mxCell id="1" parent="0" />
        <mxCell id="2a3bc250acf0617d-8" value="&lt;font data-font-src=&quot;https://db.onlinewebfonts.com/t/17e268efa7d01d3f0d6c6c4d95f4326c.ttf&quot; face=&quot;NewsGotT&quot;&gt;mul_cu&lt;/font&gt;" style="shape=umlFrame;whiteSpace=wrap;html=1;rounded=1;shadow=0;comic=0;labelBackgroundColor=none;strokeWidth=1;fontFamily=Verdana;fontSize=12;align=center;movable=1;resizable=1;rotatable=1;deletable=1;editable=1;locked=0;connectable=1;" parent="1" vertex="1">
          <mxGeometry x="30" y="35" width="1050" height="745" as="geometry" />
        </mxCell>
        <mxCell id="8ndJ4Dx7o7mWH3u_3wzX-2" style="edgeStyle=orthogonalEdgeStyle;rounded=0;orthogonalLoop=1;jettySize=auto;html=1;exitX=0.5;exitY=0.118;exitDx=0;exitDy=0;entryX=0;entryY=0.5;entryDx=0;entryDy=0;exitPerimeter=0;" edge="1" parent="1" source="382b91b5511bd0f7-1" target="8ndJ4Dx7o7mWH3u_3wzX-1">
          <mxGeometry relative="1" as="geometry" />
        </mxCell>
        <mxCell id="382b91b5511bd0f7-1" value="" style="ellipse;html=1;shape=startState;fillColor=#000000;strokeColor=default;rounded=1;shadow=0;comic=0;labelBackgroundColor=none;fontFamily=Verdana;fontSize=12;fontColor=#000000;align=center;direction=south;" parent="1" vertex="1">
          <mxGeometry x="130" y="135" width="30" height="30" as="geometry" />
        </mxCell>
        <mxCell id="8ndJ4Dx7o7mWH3u_3wzX-15" style="edgeStyle=orthogonalEdgeStyle;rounded=0;orthogonalLoop=1;jettySize=auto;html=1;exitX=1;exitY=0.5;exitDx=0;exitDy=0;entryX=0;entryY=0.5;entryDx=0;entryDy=0;fontFamily=Helvetica;fontSize=12;fontColor=default;" edge="1" parent="1" source="8ndJ4Dx7o7mWH3u_3wzX-1" target="8ndJ4Dx7o7mWH3u_3wzX-10">
          <mxGeometry relative="1" as="geometry" />
        </mxCell>
        <mxCell id="8ndJ4Dx7o7mWH3u_3wzX-16" value="fft_ready" style="edgeLabel;html=1;align=center;verticalAlign=middle;resizable=0;points=[];strokeColor=default;fontFamily=NewsGotT;fontSize=12;fontColor=default;fillColor=default;fontSource=https%3A%2F%2Fdb.onlinewebfonts.com%2Ft%2F17e268efa7d01d3f0d6c6c4d95f4326c.ttf;" vertex="1" connectable="0" parent="8ndJ4Dx7o7mWH3u_3wzX-15">
          <mxGeometry x="0.0209" y="-2" relative="1" as="geometry">
            <mxPoint y="-12" as="offset" />
          </mxGeometry>
        </mxCell>
        <mxCell id="8ndJ4Dx7o7mWH3u_3wzX-1" value="&lt;font data-font-src=&quot;https://db.onlinewebfonts.com/t/17e268efa7d01d3f0d6c6c4d95f4326c.ttf&quot; face=&quot;NewsGotT&quot;&gt;S_IDLE&lt;/font&gt;" style="ellipse;whiteSpace=wrap;html=1;" vertex="1" parent="1">
          <mxGeometry x="220" y="122.5" width="80" height="55" as="geometry" />
        </mxCell>
        <mxCell id="8ndJ4Dx7o7mWH3u_3wzX-17" style="edgeStyle=orthogonalEdgeStyle;shape=connector;rounded=0;orthogonalLoop=1;jettySize=auto;html=1;exitX=1;exitY=0.5;exitDx=0;exitDy=0;entryX=0;entryY=0.5;entryDx=0;entryDy=0;strokeColor=default;align=center;verticalAlign=middle;fontFamily=Helvetica;fontSize=12;fontColor=default;labelBackgroundColor=default;endArrow=classic;" edge="1" parent="1" source="8ndJ4Dx7o7mWH3u_3wzX-10" target="8ndJ4Dx7o7mWH3u_3wzX-11">
          <mxGeometry relative="1" as="geometry" />
        </mxCell>
        <mxCell id="8ndJ4Dx7o7mWH3u_3wzX-18" value="data_counter = N" style="edgeLabel;html=1;align=center;verticalAlign=middle;resizable=0;points=[];strokeColor=default;fontFamily=Helvetica;fontSize=12;fontColor=default;fillColor=default;" vertex="1" connectable="0" parent="8ndJ4Dx7o7mWH3u_3wzX-17">
          <mxGeometry x="0.1397" y="1" relative="1" as="geometry">
            <mxPoint as="offset" />
          </mxGeometry>
        </mxCell>
        <mxCell id="8ndJ4Dx7o7mWH3u_3wzX-10" value="&lt;font face=&quot;NewsGotT&quot;&gt;S_FILL_MEM&lt;/font&gt;" style="ellipse;whiteSpace=wrap;html=1;" vertex="1" parent="1">
          <mxGeometry x="390" y="122.5" width="80" height="55" as="geometry" />
        </mxCell>
        <mxCell id="8ndJ4Dx7o7mWH3u_3wzX-11" value="&lt;font face=&quot;NewsGotT&quot;&gt;S_CHECK_J&lt;/font&gt;" style="ellipse;whiteSpace=wrap;html=1;" vertex="1" parent="1">
          <mxGeometry x="560" y="122.5" width="80" height="55" as="geometry" />
        </mxCell>
        <mxCell id="8ndJ4Dx7o7mWH3u_3wzX-12" value="&lt;font face=&quot;NewsGotT&quot;&gt;S_CHECK_N&lt;/font&gt;" style="ellipse;whiteSpace=wrap;html=1;" vertex="1" parent="1">
          <mxGeometry x="730" y="122.5" width="80" height="55" as="geometry" />
        </mxCell>
      </root>
    </mxGraphModel>
  </diagram>
</mxfile>
